# xmcd
#
# Track frame offsets:
#	150
#	11854
#	31929
#	50249
#	65450
#	88870
#	116234
#	128898
#	142453
#	158600
#	174706
#	192066
#
# Disc length: 2849
#
# Revision: 2
# Processed by: cddbd v1.5.1PL0 Copyright (c) Steve Scherf et al.
# Submitted via: CDex 1.40Release
# Normalized: r1:TRMNUM
#
DISCID=b30b1f0c
DTITLE=Eric Clapton - The Blues Concert Cd 1
DYEAR=1995
DGENRE=Blues
TTITLE0=Blues Leave Me Alone
TTITLE1=Standin' Round Crying
TTITLE2=44
TTITLE3=It Hurts Me Too
TTITLE4=Five Long Years
TTITLE5=Crossroads
TTITLE6=Malted milk
TTITLE7=Motherless Child
TTITLE8=How Long Blues
TTITLE9=Reconsider Baby
TTITLE10=Sinner's Prayer
TTITLE11=Everyday I Have The Blues
EXTD=Album Kts 457-58\nTwo discs\nEnrique Acevedo YEAR: 1995 ID3G: 0
EXTT0=
EXTT1=
EXTT2=
EXTT3=
EXTT4=
EXTT5=
EXTT6=
EXTT7=
EXTT8=
EXTT9=
EXTT10=
EXTT11=
PLAYORDER=
